<svg xmlns="http://www.w3.org/2000/svg" width="920" height="420" viewBox="0 0 920 420">
<rect width="100%" height="100%" fill="#ffffff"/>
<text x="460.0" y="28" text-anchor="middle" font-family="Arial" font-size="18" font-weight="700">Clean Accuracy by Method</text>
<line x1="190" y1="50" x2="190" y2="330" stroke="#222"/>
<line x1="190" y1="330" x2="890" y2="330" stroke="#222"/>
<line x1="190.0" y1="330" x2="190.0" y2="335" stroke="#222"/>
<text x="190.0" y="352" text-anchor="middle" font-family="Arial" font-size="11">0%</text>
<line x1="276.6" y1="330" x2="276.6" y2="335" stroke="#222"/>
<text x="276.6" y="352" text-anchor="middle" font-family="Arial" font-size="11">10%</text>
<line x1="363.2" y1="330" x2="363.2" y2="335" stroke="#222"/>
<text x="363.2" y="352" text-anchor="middle" font-family="Arial" font-size="11">20%</text>
<line x1="449.7" y1="330" x2="449.7" y2="335" stroke="#222"/>
<text x="449.7" y="352" text-anchor="middle" font-family="Arial" font-size="11">30%</text>
<line x1="536.3" y1="330" x2="536.3" y2="335" stroke="#222"/>
<text x="536.3" y="352" text-anchor="middle" font-family="Arial" font-size="11">40%</text>
<line x1="622.9" y1="330" x2="622.9" y2="335" stroke="#222"/>
<text x="622.9" y="352" text-anchor="middle" font-family="Arial" font-size="11">50%</text>
<line x1="709.5" y1="330" x2="709.5" y2="335" stroke="#222"/>
<text x="709.5" y="352" text-anchor="middle" font-family="Arial" font-size="11">60%</text>
<line x1="796.1" y1="330" x2="796.1" y2="335" stroke="#222"/>
<text x="796.1" y="352" text-anchor="middle" font-family="Arial" font-size="11">70%</text>
<line x1="882.7" y1="330" x2="882.7" y2="335" stroke="#222"/>
<text x="882.7" y="352" text-anchor="middle" font-family="Arial" font-size="11">80%</text>
<line x1="969.2" y1="330" x2="969.2" y2="335" stroke="#222"/>
<text x="969.2" y="352" text-anchor="middle" font-family="Arial" font-size="11">90%</text>
<text x="182" y="91.6" text-anchor="end" font-family="Arial" font-size="12">Standard RNN</text>
<rect x="190" y="50.0" width="693.0" height="64.0" fill="#8d99ae"/>
<text x="889.0" y="91.6" font-family="Arial" font-size="12">80.0%</text>
<text x="182" y="163.6" text-anchor="end" font-family="Arial" font-size="12">Cap 0.60</text>
<rect x="190" y="122.0" width="680.1" height="64.0" fill="#2f6f9f"/>
<text x="876.1" y="163.6" font-family="Arial" font-size="12">78.6%</text>
<text x="182" y="235.6" text-anchor="end" font-family="Arial" font-size="12">Adv emb + local</text>
<rect x="190" y="194.0" width="680.1" height="64.0" fill="#4f772d"/>
<text x="876.1" y="235.6" font-family="Arial" font-size="12">78.6%</text>
<text x="182" y="307.6" text-anchor="end" font-family="Arial" font-size="12">Final 50k</text>
<rect x="190" y="266.0" width="700.0" height="64.0" fill="#d1495b"/>
<text x="896.0" y="307.6" font-family="Arial" font-size="12">80.8%</text>
</svg>